<svg width="11" height="13" viewBox="0 0 11 13" fill="none" xmlns="http://www.w3.org/2000/svg">
<path d="M6.06748 12.9227C5.02703 12.9227 4.12043 12.6626 3.34767 12.1424C2.57996 11.6221 1.98396 10.91 1.5597 10.0059C1.13544 9.10183 0.92334 8.07149 0.92334 6.91488C0.92334 5.74816 1.13799 4.71025 1.5673 3.80112C2.00166 2.89199 2.6027 2.17984 3.3704 1.66467C4.13811 1.14445 5.02955 0.884338 6.04474 0.884338C6.82255 0.884338 7.52712 1.03586 8.15846 1.3389C8.7898 1.63689 9.31001 2.05863 9.71912 2.6041C10.1333 3.14453 10.3934 3.77587 10.4995 4.49812H9.13577C8.99435 3.84152 8.65342 3.2809 8.11299 2.81623C7.57762 2.34652 6.89579 2.11166 6.06748 2.11166C5.32502 2.11166 4.66843 2.31369 4.0977 2.71774C3.52697 3.11675 3.07999 3.67485 2.75674 4.39205C2.43855 5.1042 2.27943 5.92999 2.27943 6.86942C2.27943 7.8139 2.43601 8.64979 2.74915 9.37709C3.06229 10.0993 3.50172 10.665 4.0674 11.0741C4.63813 11.4832 5.30482 11.6878 6.06748 11.6878C6.58265 11.6878 7.05234 11.5918 7.4766 11.3999C7.90591 11.2029 8.26452 10.9251 8.55241 10.5665C8.84535 10.2079 9.04232 9.78115 9.14333 9.28618H10.507C10.406 9.98823 10.156 10.6145 9.75702 11.165C9.36306 11.7105 8.8504 12.1398 8.21906 12.453C7.59278 12.7661 6.87559 12.9227 6.06748 12.9227Z" fill="#78829D"/>
</svg>
