<svg width="11" height="13" viewBox="0 0 11 13" fill="none" xmlns="http://www.w3.org/2000/svg">
<path d="M5.63723 12.9227C4.55132 12.9227 3.61189 12.6702 2.81893 12.1651C2.02597 11.655 1.4123 10.9504 0.977944 10.0514C0.548634 9.14729 0.333984 8.10684 0.333984 6.93003C0.333984 5.75827 0.548634 4.71782 0.977944 3.80869C1.4123 2.89452 2.01082 2.17984 2.77348 1.66467C3.54119 1.14445 4.42758 0.884338 5.43267 0.884338C6.06401 0.884338 6.67262 1.0005 7.2585 1.23284C7.84439 1.46012 8.36965 1.81114 8.83432 2.28591C9.30403 2.75562 9.67526 3.34908 9.948 4.06628C10.2207 4.77843 10.3571 5.6219 10.3571 6.59668V7.26338H1.26584V6.07394H8.97826C8.97826 5.32643 8.82675 4.65469 8.5237 4.0587C8.22571 3.45767 7.80903 2.98291 7.27366 2.63441C6.74333 2.28591 6.12967 2.11166 5.43267 2.11166C4.69527 2.11166 4.04625 2.30864 3.48562 2.70259C2.925 3.09655 2.48558 3.61677 2.16739 4.26326C1.85425 4.90975 1.69515 5.61685 1.6901 6.38455V7.0967C1.6901 8.02098 1.8492 8.82909 2.16739 9.52104C2.49063 10.2079 2.94773 10.7408 3.53866 11.1196C4.12959 11.4984 4.82911 11.6878 5.63723 11.6878C6.18775 11.6878 6.67009 11.6019 7.08425 11.4302C7.50346 11.2585 7.85448 11.0287 8.13732 10.7408C8.42521 10.4478 8.6424 10.1271 8.78887 9.77863L10.0692 10.1953C9.89244 10.6852 9.60202 11.1373 9.19797 11.5514C8.79896 11.9656 8.29894 12.2989 7.69791 12.5515C7.10192 12.7989 6.41503 12.9227 5.63723 12.9227Z" fill="#78829D"/>
</svg>
