<svg width="30" height="22" viewBox="0 0 30 22" fill="none" xmlns="http://www.w3.org/2000/svg">
<path d="M2.90251 21.5475C1.3446 21.5475 0.081665 20.2846 0.081665 18.7267V3.89407C0.081665 2.4093 1.28531 1.20566 2.77007 1.20566H3.664C4.65506 1.20566 5.45848 2.00908 5.45848 3.00014V4.65487C5.45848 4.73205 5.52105 4.79462 5.59823 4.79462C5.65736 4.79462 5.70998 4.7573 5.7306 4.70188C6.15769 3.55384 6.85275 2.64447 7.8158 1.97378C8.80464 1.28512 9.98771 0.940796 11.365 0.940796C12.76 0.940796 13.9475 1.28954 14.9275 1.98702C15.8781 2.65503 16.5214 3.55564 16.8573 4.68886C16.8757 4.75116 16.9325 4.79462 16.9975 4.79462C17.0586 4.79462 17.113 4.75608 17.1345 4.69888C17.556 3.57809 18.2947 2.67855 19.3508 2.00027C20.4456 1.29395 21.739 0.940796 23.2311 0.940796C25.1293 0.940796 26.67 1.54558 27.8531 2.75514C29.045 3.95587 29.6409 5.65985 29.6409 7.86708V18.7333C29.6409 20.2875 28.3809 21.5475 26.8267 21.5475C25.2724 21.5475 24.0125 20.2875 24.0125 18.7333V8.97953C24.0125 7.84943 23.7123 7.00185 23.1119 6.4368C22.5115 5.87175 21.7611 5.58922 20.8605 5.58922C19.8364 5.58922 19.0374 5.91589 18.4635 6.56923C17.8896 7.21374 17.6027 8.06573 17.6027 9.12521V18.8127C17.6027 20.3231 16.3783 21.5475 14.8679 21.5475C13.3575 21.5475 12.1331 20.3231 12.1331 18.8127V8.86034C12.1331 7.86267 11.8462 7.06807 11.2723 6.47653C10.7073 5.88499 9.96122 5.58922 9.03419 5.58922C8.40733 5.58922 7.8423 5.74814 7.33905 6.06599C6.84463 6.375 6.45174 6.81203 6.16038 7.37708C5.86903 7.9333 5.72335 8.58664 5.72335 9.3371V18.7267C5.72335 20.2846 4.46041 21.5475 2.90251 21.5475Z" fill="#5F0101"/>
</svg>
