<svg width="9" height="13" viewBox="0 0 9 13" fill="none" xmlns="http://www.w3.org/2000/svg">
<path d="M8.6069 3.59657L7.372 3.94506C7.25078 3.59657 7.07906 3.2809 6.85683 2.99806C6.6346 2.71522 6.34418 2.49046 5.98558 2.32379C5.63203 2.15712 5.19262 2.07378 4.66734 2.07378C3.87943 2.07378 3.23295 2.26066 2.72788 2.63441C2.22281 3.00816 1.97027 3.4905 1.97027 4.08143C1.97027 4.58145 2.14199 4.98803 2.48544 5.30118C2.83394 5.60927 3.36932 5.85423 4.09157 6.03606L5.84922 6.46789C6.82401 6.70527 7.55382 7.08155 8.03869 7.59672C8.52861 8.11189 8.77357 8.75838 8.77357 9.53619C8.77357 10.1928 8.59175 10.7761 8.2281 11.2863C7.86445 11.7964 7.35685 12.1979 6.70531 12.4909C6.05882 12.7787 5.30879 12.9227 4.45522 12.9227C3.31881 12.9227 2.38191 12.6676 1.64451 12.1575C0.907103 11.6423 0.434862 10.8999 0.227783 9.93015L1.52328 9.61195C1.68996 10.3039 2.01572 10.8266 2.50059 11.1802C2.99051 11.5337 3.63449 11.7105 4.4325 11.7105C5.32647 11.7105 6.04114 11.511 6.57652 11.112C7.11189 10.708 7.37958 10.2029 7.37958 9.5968C7.37958 9.12709 7.22301 8.73313 6.90986 8.41494C6.59672 8.09169 6.12195 7.85431 5.48556 7.70279L3.58397 7.24822C2.57383 7.00579 1.82633 6.62194 1.34146 6.09666C0.856593 5.57139 0.614164 4.91985 0.614164 4.14204C0.614164 3.5006 0.788405 2.93745 1.1369 2.45258C1.4854 1.96266 1.96522 1.57881 2.57636 1.30102C3.18749 1.02323 3.88448 0.884338 4.66734 0.884338C5.73304 0.884338 6.58409 1.12677 7.22048 1.61164C7.86192 2.09146 8.32406 2.7531 8.6069 3.59657Z" fill="#78829D"/>
</svg>
