<svg width="11" height="13" viewBox="0 0 11 13" fill="none" xmlns="http://www.w3.org/2000/svg">
<path d="M6.28759 12.9227C5.20169 12.9227 4.26227 12.6702 3.46931 12.1651C2.67635 11.655 2.0627 10.9504 1.62833 10.0514C1.19902 9.14729 0.984375 8.10684 0.984375 6.93003C0.984375 5.75827 1.19902 4.71782 1.62833 3.80869C2.0627 2.89452 2.66119 2.17984 3.42384 1.66467C4.19155 1.14445 5.07795 0.884338 6.08305 0.884338C6.71438 0.884338 7.323 1.0005 7.90888 1.23284C8.49476 1.46012 9.02004 1.81114 9.48471 2.28591C9.95442 2.75562 10.3256 3.34908 10.5984 4.06628C10.8711 4.77843 11.0075 5.6219 11.0075 6.59668V7.26338H1.91621V6.07394H9.62865C9.62865 5.32643 9.47711 4.65469 9.17407 4.0587C8.87608 3.45767 8.45939 2.98291 7.92402 2.63441C7.39369 2.28591 6.78004 2.11166 6.08305 2.11166C5.34564 2.11166 4.69663 2.30864 4.136 2.70259C3.57537 3.09655 3.13597 3.61677 2.81778 4.26326C2.50464 4.90975 2.34552 5.61685 2.34047 6.38455V7.0967C2.34047 8.02098 2.49959 8.82909 2.81778 9.52104C3.14103 10.2079 3.5981 10.7408 4.18904 11.1196C4.77997 11.4984 5.47948 11.6878 6.28759 11.6878C6.83812 11.6878 7.32048 11.6019 7.73464 11.4302C8.15385 11.2585 8.50485 11.0287 8.78769 10.7408C9.07558 10.4478 9.29277 10.1271 9.43924 9.77863L10.7196 10.1953C10.5428 10.6852 10.2524 11.1373 9.84836 11.5514C9.44935 11.9656 8.94933 12.2989 8.3483 12.5515C7.75232 12.7989 7.0654 12.9227 6.28759 12.9227Z" fill="#78829D"/>
</svg>
