<svg width="19" height="22" viewBox="0 0 19 22" fill="none" xmlns="http://www.w3.org/2000/svg">
<path d="M17.3008 4.33282C18.121 5.63922 16.9242 7.08677 15.3846 7.18152L14.3997 7.24212C13.6364 7.2891 12.9847 6.72209 12.4981 6.1322C12.2067 5.77022 11.8227 5.48328 11.3459 5.27138C10.878 5.05066 10.3173 4.9403 9.66398 4.9403C8.78992 4.9403 8.0527 5.12571 7.45234 5.49652C6.85197 5.8585 6.55179 6.3441 6.55179 6.95329C6.55179 7.43888 6.74602 7.84943 7.1345 8.18493C7.52297 8.52043 8.18955 8.78971 9.13424 8.99277L12.8159 9.7344C14.7936 10.1405 16.268 10.7939 17.2392 11.6944C18.2104 12.595 18.696 13.778 18.696 15.2436C18.696 16.5768 18.3031 17.7466 17.5173 18.7531C16.7404 19.7596 15.6721 20.5454 14.3124 21.1105C12.9616 21.6667 11.4033 21.9448 9.63749 21.9448C6.94467 21.9448 4.79925 21.3842 3.20121 20.2629C2.50275 19.7662 1.93135 19.1911 1.48699 18.5375C0.548155 17.1566 1.84143 15.5789 3.50896 15.4913L3.65718 15.4835C4.97847 15.4142 6.07565 16.506 7.17423 17.2434C7.81874 17.6672 8.64424 17.8791 9.65074 17.8791C10.6396 17.8791 11.4342 17.6893 12.0345 17.3096C12.6437 16.9211 12.9528 16.4223 12.9616 15.8131C12.9528 15.301 12.7364 14.8817 12.3127 14.555C11.8889 14.2195 11.2355 13.9635 10.3526 13.7869L6.8299 13.085C4.84339 12.6877 3.36455 11.999 2.39337 11.019C1.43101 10.039 0.949836 8.78971 0.949836 7.27113C0.949836 5.96445 1.303 4.83876 2.00931 3.89407C2.72445 2.94938 3.72653 2.22099 5.01556 1.70891C6.31341 1.19684 7.83198 0.940796 9.57128 0.940796C12.1405 0.940796 14.1623 1.48377 15.6368 2.56973C16.3242 3.07303 16.8789 3.66073 17.3008 4.33282Z" fill="#5F0101"/>
</svg>
