<svg width="10" height="13" viewBox="0 0 10 13" fill="none" xmlns="http://www.w3.org/2000/svg">
<path d="M4.57883 12.9454C3.87678 12.9454 3.23535 12.809 2.65452 12.5363C2.07369 12.2585 1.61155 11.8595 1.2681 11.3393C0.924652 10.814 0.75293 10.1776 0.75293 9.43013C0.75293 8.85435 0.861514 8.36948 1.07869 7.97552C1.29587 7.58157 1.60397 7.25833 2.00298 7.00579C2.40198 6.75326 2.87422 6.55375 3.4197 6.40728C3.96518 6.26081 4.56621 6.14717 5.2228 6.06636C5.87434 5.98555 6.42486 5.91484 6.87437 5.85423C7.32893 5.79362 7.67491 5.69766 7.91229 5.56634C8.14968 5.43502 8.26837 5.22289 8.26837 4.92995V4.65721C8.26837 3.86425 8.03099 3.24049 7.55623 2.78593C7.08651 2.32631 6.40971 2.09651 5.52584 2.09651C4.68742 2.09651 4.00306 2.28086 3.47274 2.64956C2.94746 3.01826 2.57876 3.45262 2.36663 3.95264L1.08628 3.4905C1.34891 2.85411 1.71256 2.34652 2.17722 1.96771C2.64189 1.58386 3.16212 1.3086 3.7379 1.14192C4.31368 0.9702 4.89703 0.884338 5.48796 0.884338C5.93243 0.884338 6.39455 0.942421 6.87437 1.05859C7.35924 1.17475 7.80876 1.37678 8.22292 1.66467C8.63708 1.94751 8.97294 2.34399 9.23053 2.85411C9.48812 3.35918 9.61691 4.00062 9.61691 4.77843V12.6803H8.26837V10.8393H8.18504C8.02342 11.1827 7.7835 11.5161 7.46531 11.8393C7.14712 12.1626 6.74811 12.4277 6.2683 12.6348C5.78848 12.8419 5.22532 12.9454 4.57883 12.9454ZM4.76065 11.7105C5.47785 11.7105 6.09909 11.5514 6.62436 11.2332C7.14963 10.915 7.5537 10.4933 7.83654 9.96803C8.12443 9.4377 8.26837 8.85435 8.26837 8.21796V6.53607C8.16736 6.63204 7.99816 6.7179 7.76077 6.79366C7.52844 6.86942 7.25823 6.93761 6.95014 6.99821C6.6471 7.05377 6.34405 7.10175 6.04101 7.14216C5.73796 7.18256 5.46524 7.21792 5.2228 7.24822C4.56621 7.32903 4.00557 7.4553 3.54091 7.62703C3.07624 7.79875 2.72018 8.03613 2.4727 8.33918C2.22521 8.63717 2.10147 9.02102 2.10147 9.49074C2.10147 10.1978 2.35399 10.7458 2.85906 11.1347C3.36413 11.5186 3.998 11.7105 4.76065 11.7105Z" fill="#78829D"/>
</svg>
