<svg width="11" height="16" viewBox="0 0 11 16" fill="none" xmlns="http://www.w3.org/2000/svg">
<path d="M5.70409 15.9225C4.7495 15.9225 3.91361 15.67 3.19641 15.1649C2.47921 14.6598 1.91858 13.9553 1.51452 13.0512C1.11552 12.1471 0.916016 11.094 0.916016 9.89196C0.916016 8.69494 1.11552 7.64692 1.51452 6.7479C1.91858 5.84382 2.48174 5.14177 3.20399 4.64176C3.92624 4.13668 4.76718 3.88415 5.72681 3.88415C6.43391 3.88415 7.02232 4.01042 7.49203 4.26295C7.96175 4.51044 8.33803 4.81853 8.62087 5.18723C8.90371 5.55593 9.12341 5.91453 9.27998 6.26303H9.4012V0.164307H10.7573V15.6801H9.43908V13.5209H9.27998C9.12341 13.8744 8.90118 14.2381 8.61329 14.6118C8.3254 14.9805 7.94407 15.2912 7.46931 15.5437C6.99959 15.7962 6.41118 15.9225 5.70409 15.9225ZM5.86318 14.6876C6.61574 14.6876 7.25718 14.4831 7.7875 14.0739C8.31782 13.6598 8.72188 13.0916 8.99967 12.3693C9.28251 11.642 9.42392 10.8087 9.42392 9.86923C9.42392 8.9399 9.28503 8.11916 9.00724 7.40702C8.72945 6.68982 8.3254 6.12919 7.79508 5.72513C7.26475 5.31602 6.62079 5.11147 5.86318 5.11147C5.08538 5.11147 4.42878 5.3236 3.89341 5.74786C3.36308 6.16707 2.95902 6.73527 2.68124 7.45247C2.4085 8.16967 2.27213 8.97526 2.27213 9.86923C2.27213 10.7733 2.41102 11.589 2.68881 12.3163C2.9666 13.0436 3.37066 13.6219 3.90098 14.0512C4.43636 14.4755 5.09043 14.6876 5.86318 14.6876Z" fill="#78829D"/>
</svg>
