<svg width="11" height="16" viewBox="0 0 11 16" fill="none" xmlns="http://www.w3.org/2000/svg">
<path d="M5.63938 15.9225C4.6848 15.9225 3.84891 15.67 3.13171 15.1649C2.41451 14.6598 1.85388 13.9553 1.44983 13.0512C1.05082 12.1471 0.851318 11.094 0.851318 9.89196C0.851318 8.69494 1.05082 7.64692 1.44983 6.7479C1.85388 5.84382 2.41703 5.14177 3.13929 4.64176C3.86154 4.13668 4.70248 3.88415 5.66211 3.88415C6.36921 3.88415 6.95762 4.01042 7.42733 4.26295C7.89705 4.51044 8.27332 4.81853 8.55616 5.18723C8.839 5.55593 9.05871 5.91453 9.21528 6.26303H9.3365V0.164307H10.6926V15.6801H9.37438V13.5209H9.21528C9.05871 13.8744 8.83648 14.2381 8.54859 14.6118C8.2607 14.9805 7.87937 15.2912 7.40461 15.5437C6.93489 15.7962 6.34648 15.9225 5.63938 15.9225ZM5.79848 14.6876C6.55104 14.6876 7.19247 14.4831 7.7228 14.0739C8.25312 13.6598 8.65718 13.0916 8.93497 12.3693C9.21781 11.642 9.35923 10.8087 9.35923 9.86923C9.35923 8.9399 9.22034 8.11916 8.94255 7.40702C8.66476 6.68982 8.2607 6.12919 7.73037 5.72513C7.20005 5.31602 6.55609 5.11147 5.79848 5.11147C5.02067 5.11147 4.36408 5.3236 3.82871 5.74786C3.29838 6.16707 2.89433 6.73527 2.61654 7.45247C2.3438 8.16967 2.20743 8.97526 2.20743 9.86923C2.20743 10.7733 2.34633 11.589 2.62411 12.3163C2.9019 13.0436 3.30596 13.6219 3.83628 14.0512C4.37166 14.4755 5.02572 14.6876 5.79848 14.6876Z" fill="#78829D"/>
</svg>
