<svg width="7" height="15" viewBox="0 0 7 15" fill="none" xmlns="http://www.w3.org/2000/svg">
<path d="M6.30984 3.0433V4.21759H0.756592V3.0433H6.30984ZM2.49151 0.25531H3.84763V11.6421C3.84763 12.127 3.93096 12.5083 4.09764 12.7861C4.26431 13.0588 4.48149 13.2533 4.74918 13.3695C5.01687 13.4806 5.30222 13.5361 5.60527 13.5361C5.78204 13.5361 5.93357 13.526 6.05983 13.5058C6.1861 13.4806 6.29722 13.4553 6.39318 13.4301L6.68107 14.6498C6.54975 14.7003 6.38813 14.7458 6.1962 14.7862C6.00428 14.8316 5.7669 14.8544 5.48406 14.8544C4.98909 14.8544 4.5118 14.7458 4.05219 14.5286C3.59762 14.3114 3.22387 13.9882 2.93093 13.5589C2.63798 13.1296 2.49151 12.5967 2.49151 11.9603V0.25531Z" fill="#78829D"/>
</svg>
