<svg width="20" height="28" viewBox="0 0 20 28" fill="none" xmlns="http://www.w3.org/2000/svg">
<path d="M8.42529 27.8786C6.88023 27.8786 5.48087 27.4813 4.22716 26.6867C2.98228 25.8833 1.99342 24.7046 1.26062 23.1508C0.536651 21.588 0.174683 19.6722 0.174683 17.4031C0.174683 15.0723 0.549903 13.1343 1.30036 11.5893C2.05082 10.0354 3.04848 8.87439 4.29336 8.10627C5.54707 7.32933 6.91997 6.94085 8.41206 6.94085C9.55099 6.94085 10.5001 7.13509 11.2594 7.52356C12.0275 7.90321 12.6455 8.37997 13.1135 8.95385C13.5724 9.4978 13.925 10.0336 14.1712 10.5612C14.1886 10.5984 14.2258 10.6225 14.267 10.6225C14.3247 10.6225 14.3716 10.5757 14.3716 10.5179V3.23933C14.3716 1.68508 15.6315 0.42511 17.1858 0.42511C18.74 0.42511 20 1.68508 20 3.23933V24.7664C20 26.3024 18.7549 27.5476 17.2189 27.5476H16.0667C15.1671 27.5476 14.4378 26.8183 14.4378 25.9186V24.4354C14.4378 24.3549 14.3725 24.2897 14.2921 24.2897C14.2355 24.2897 14.1842 24.3224 14.1594 24.3732C13.8973 24.91 13.5354 25.4428 13.0737 25.9716C12.597 26.519 11.9745 26.9737 11.2064 27.3357C10.4471 27.6976 9.52008 27.8786 8.42529 27.8786ZM10.2132 23.3891C11.1225 23.3891 11.8907 23.1419 12.5175 22.6475C13.1532 22.1443 13.6388 21.4424 13.9743 20.5418C14.3186 19.6413 14.4908 18.5862 14.4908 17.3766C14.4908 16.1671 14.323 15.1164 13.9875 14.2247C13.652 13.333 13.1664 12.6443 12.5308 12.1587C11.8951 11.6732 11.1225 11.4304 10.2132 11.4304C9.28612 11.4304 8.50477 11.682 7.86909 12.1852C7.23341 12.6885 6.75222 13.386 6.42555 14.2777C6.09888 15.1694 5.93555 16.2024 5.93555 17.3766C5.93555 18.5597 6.09888 19.6059 6.42555 20.5153C6.76105 21.4159 7.24224 22.1222 7.86909 22.6343C8.50477 23.1375 9.28612 23.3891 10.2132 23.3891Z" fill="#5F0101"/>
</svg>
