<svg width="12" height="16" viewBox="0 0 12 16" fill="none" xmlns="http://www.w3.org/2000/svg">
<path d="M0.878906 15.6801V0.164307H5.88668C6.98773 0.164307 7.90696 0.36381 8.64436 0.762815C9.38682 1.15677 9.94492 1.70477 10.3187 2.40682C10.6975 3.10382 10.8869 3.90435 10.8869 4.80843C10.8869 5.7125 10.6975 6.51052 10.3187 7.20246C9.94492 7.89441 9.38934 8.43483 8.65194 8.82374C7.91453 9.21264 7.00036 9.40709 5.9094 9.40709H1.64409V8.11159H5.87153C6.67964 8.11159 7.35138 7.97774 7.88676 7.71006C8.42718 7.44237 8.82871 7.06104 9.09135 6.56607C9.35903 6.0711 9.49288 5.48522 9.49288 4.80843C9.49288 4.13163 9.35903 3.5407 9.09135 3.03563C8.82366 2.52551 8.41961 2.13156 7.87918 1.85377C7.34381 1.57598 6.66701 1.43708 5.84879 1.43708H2.29563V15.6801H0.878906ZM7.72008 8.67979L11.5384 15.6801H9.90199L6.12154 8.67979H7.72008Z" fill="#78829D"/>
</svg>
