<svg width="11" height="16" viewBox="0 0 11 16" fill="none" xmlns="http://www.w3.org/2000/svg">
<path d="M0 15.6801V0.164307H5.00777C6.10883 0.164307 7.02805 0.36381 7.76546 0.762815C8.50791 1.15677 9.06601 1.70477 9.43976 2.40682C9.81857 3.10382 10.008 3.90435 10.008 4.80843C10.008 5.7125 9.81857 6.51052 9.43976 7.20246C9.06601 7.89441 8.51044 8.43483 7.77303 8.82374C7.03563 9.21264 6.12145 9.40709 5.0305 9.40709H0.765182V8.11159H4.99262C5.80073 8.11159 6.47248 7.97774 7.00785 7.71006C7.54828 7.44237 7.94981 7.06104 8.21244 6.56607C8.48013 6.0711 8.61397 5.48522 8.61397 4.80843C8.61397 4.13163 8.48013 3.5407 8.21244 3.03563C7.94476 2.52551 7.5407 2.13156 7.00027 1.85377C6.4649 1.57598 5.78811 1.43708 4.96989 1.43708H1.41672V15.6801H0ZM6.84118 8.67979L10.6595 15.6801H9.02308L5.24263 8.67979H6.84118Z" fill="#78829D"/>
</svg>
