<svg width="20" height="22" viewBox="0 0 20 22" fill="none" xmlns="http://www.w3.org/2000/svg">
<path d="M10.2891 21.9448C8.19663 21.9448 6.39554 21.521 4.88579 20.6734C3.38487 19.817 2.22829 18.6075 1.41602 17.0447C0.603764 15.4732 0.197632 13.6147 0.197632 11.4693C0.197632 9.37683 0.603764 7.54042 1.41602 5.96004C2.22829 4.37966 3.37163 3.14803 4.84606 2.26513C6.32932 1.38224 8.06861 0.940796 10.064 0.940796C11.4059 0.940796 12.6552 1.15711 13.8118 1.58972C14.9772 2.01351 15.9926 2.65361 16.8578 3.51001C17.7319 4.36642 18.4117 5.44355 18.8973 6.7414C19.3829 8.03042 19.6257 9.54017 19.6257 11.2706C19.6257 12.1264 18.9319 12.8201 18.0762 12.8201H4.19714C3.23167 12.8201 2.44901 12.0374 2.44901 11.072C2.44901 10.1065 3.23167 9.32386 4.19713 9.32386H12.0673C13.3087 9.32386 14.3947 8.24677 13.7853 7.16519C13.4322 6.53833 12.9422 6.04833 12.3153 5.69517C11.6973 5.33318 10.9777 5.15219 10.1567 5.15219C9.30025 5.15219 8.54096 5.35084 7.87879 5.74814C7.22545 6.13662 6.71338 6.66194 6.34256 7.32411C5.97175 7.97745 5.78192 8.70583 5.7731 9.50926V12.8334C5.7731 13.8399 5.9585 14.7095 6.32932 15.4423C6.70896 16.1751 7.24311 16.7402 7.93177 17.1375C8.62042 17.5348 9.4371 17.7334 10.3818 17.7334C11.0086 17.7334 11.5825 17.6451 12.1034 17.4685C12.6243 17.292 13.0702 17.0271 13.441 16.6739C14.1137 16.0333 14.9217 15.4179 15.8485 15.479L16.3278 15.5107C18.0052 15.6213 19.2226 17.2605 18.2075 18.6005C18.103 18.7384 17.993 18.8731 17.8775 19.0048C17.0653 19.9318 16.0146 20.6558 14.7256 21.1767C13.4454 21.6888 11.9666 21.9448 10.2891 21.9448Z" fill="#5F0101"/>
</svg>
