<svg width="12" height="17" viewBox="0 0 12 17" fill="none" xmlns="http://www.w3.org/2000/svg">
<path d="M9.87058 5.04335C9.78472 4.17968 9.40341 3.49278 8.72662 2.98266C8.04982 2.47254 7.19878 2.21748 6.17349 2.21748C5.45123 2.21748 4.81484 2.34122 4.26431 2.58871C3.71884 2.83619 3.28954 3.17964 2.97639 3.61905C2.6683 4.05341 2.51424 4.54838 2.51424 5.10396C2.51424 5.51306 2.60263 5.87166 2.7794 6.17976C2.95618 6.48785 3.19357 6.75301 3.49156 6.97524C3.79461 7.19242 4.12795 7.3793 4.4916 7.53587C4.8603 7.69244 5.23153 7.82376 5.60528 7.92983L7.24171 8.39954C7.73668 8.53591 8.23165 8.71016 8.72662 8.92229C9.22159 9.13442 9.67362 9.40211 10.0827 9.72535C10.4969 10.0435 10.8277 10.435 11.0752 10.8996C11.3277 11.3593 11.454 11.9123 11.454 12.5588C11.454 13.3871 11.2393 14.1321 10.81 14.7937C10.3807 15.4554 9.76453 15.9806 8.96146 16.3696C8.1584 16.7534 7.19625 16.9453 6.075 16.9453C5.0194 16.9453 4.1027 16.7711 3.32489 16.4226C2.54708 16.069 1.93595 15.5816 1.49148 14.9604C1.04702 14.3392 0.797013 13.6194 0.741455 12.8012H2.19605C2.24655 13.4124 2.44859 13.9301 2.80214 14.3543C3.15569 14.7786 3.6153 15.1018 4.18098 15.3241C4.74665 15.5412 5.378 15.6498 6.075 15.6498C6.84776 15.6498 7.53465 15.521 8.13568 15.2634C8.74176 15.0008 9.21652 14.6372 9.55997 14.1725C9.90847 13.7028 10.0827 13.1573 10.0827 12.5361C10.0827 12.0108 9.94635 11.5714 9.67361 11.2178C9.40087 10.8592 9.01955 10.5587 8.52963 10.3163C8.04476 10.0738 7.48162 9.85919 6.84018 9.67232L4.98404 9.12684C3.76682 8.76319 2.82234 8.26065 2.1506 7.61921C1.47885 6.97777 1.14299 6.15955 1.14299 5.16457C1.14299 4.3312 1.36522 3.59885 1.80968 2.96751C2.25919 2.33112 2.86526 1.83615 3.62792 1.4826C4.39563 1.124 5.25677 0.944702 6.21136 0.944702C7.17604 0.944702 8.02962 1.12148 8.77207 1.47503C9.51452 1.82858 10.1029 2.31597 10.5373 2.9372C10.9767 3.55339 11.2116 4.25544 11.2419 5.04335H9.87058Z" fill="#78829D"/>
</svg>
