<svg width="20" height="22" viewBox="0 0 20 22" fill="none" xmlns="http://www.w3.org/2000/svg">
<path d="M6.37202 9.78737V18.7267C6.37202 20.2846 5.10909 21.5475 3.55118 21.5475C1.99328 21.5475 0.730347 20.2846 0.730347 18.7267V3.89406C0.730347 2.4093 1.93398 1.20566 3.41875 1.20566H4.31267C5.30373 1.20566 6.10715 2.00908 6.10715 3.00014V4.65351C6.10715 4.73144 6.17032 4.79462 6.24826 4.79462C6.30682 4.79462 6.35918 4.75834 6.38084 4.70392C6.8348 3.56362 7.57789 2.65799 8.61015 1.98702C9.66962 1.28954 10.9542 0.940796 12.464 0.940796C13.8766 0.940796 15.1082 1.24981 16.1589 1.86783C17.2095 2.48586 18.0262 3.36875 18.6089 4.51651C19.1916 5.65544 19.483 7.01509 19.483 8.59547V18.7267C19.483 20.2846 18.22 21.5475 16.6621 21.5475C15.1042 21.5475 13.8413 20.2846 13.8413 18.7267V9.60197C13.8501 8.35709 13.5323 7.38591 12.8878 6.68842C12.2432 5.98211 11.356 5.62895 10.2258 5.62895C9.46656 5.62895 8.79556 5.79229 8.21285 6.11896C7.63897 6.44563 7.18869 6.92239 6.86202 7.54924C6.54418 8.16727 6.38085 8.91331 6.37202 9.78737Z" fill="#5F0101"/>
</svg>
