<svg width="19" height="22" viewBox="0 0 19 22" fill="none" xmlns="http://www.w3.org/2000/svg">
<path d="M6.89794 21.9316C5.60009 21.9316 4.4435 21.7064 3.42817 21.2561C2.41285 20.797 1.6094 20.1216 1.01786 19.2299C0.435153 18.3294 0.143799 17.2081 0.143799 15.8661C0.143799 14.736 0.351287 13.7869 0.766246 13.0188C1.18121 12.2506 1.74626 11.6326 2.4614 11.1647C3.17655 10.6968 3.9888 10.3436 4.89818 10.1052C5.81638 9.86684 6.77874 9.69909 7.78524 9.60197C8.96831 9.47836 9.92184 9.36359 10.6458 9.25764C11.3698 9.14287 11.8951 8.97511 12.2218 8.75439C12.5484 8.53367 12.7118 8.207 12.7118 7.77438V7.69492C12.7118 6.85617 12.4469 6.20725 11.9172 5.74814C11.3963 5.28904 10.6546 5.05949 9.69229 5.05949C8.67697 5.05949 7.86912 5.28463 7.26875 5.7349C6.28925 6.45512 5.20618 7.33285 3.99439 7.23443L3.89771 7.22658C2.28729 7.09579 1.12243 5.51354 2.07618 4.20936C2.18509 4.06044 2.30025 3.91561 2.42166 3.77488C3.19861 2.8655 4.2007 2.16802 5.42792 1.68242C6.66397 1.18801 8.09426 0.940796 9.71878 0.940796C10.8489 0.940796 11.9304 1.07323 12.9634 1.3381C14.0052 1.60297 14.9278 2.01351 15.7313 2.56973C16.5435 3.12595 17.1836 3.8411 17.6516 4.71516C18.1195 5.5804 18.3534 6.61779 18.3534 7.82735V18.8723C18.3534 20.3498 17.1557 21.5475 15.6783 21.5475H14.4136C13.6346 21.5475 13.0031 20.916 13.0031 20.1371V18.8253C13.0031 18.7708 12.959 18.7267 12.9045 18.7267C12.8675 18.7267 12.8337 18.7474 12.8164 18.7801C12.4929 19.3938 12.0651 19.9366 11.5331 20.4086C10.9857 20.8853 10.328 21.2606 9.55985 21.5343C8.79173 21.7991 7.90444 21.9316 6.89794 21.9316ZM8.51362 18.038C9.34354 18.038 10.0764 17.8747 10.712 17.548C11.3477 17.2125 11.8465 16.7622 12.2085 16.1972C12.5705 15.6321 12.7515 14.992 12.7515 14.2769V12.9152C12.7515 12.572 12.3505 12.3332 12.0231 12.4361C11.7229 12.5243 11.383 12.6082 11.0034 12.6877C10.6237 12.7583 10.2441 12.8245 9.86446 12.8863C9.48481 12.9393 9.14047 12.9879 8.83146 13.032C8.16929 13.1291 7.59101 13.2836 7.09659 13.4955C6.60217 13.7074 6.2181 13.9944 5.9444 14.3563C5.67071 14.7095 5.53385 15.1509 5.53385 15.6807C5.53385 16.4488 5.81198 17.0359 6.3682 17.4421C6.93325 17.8394 7.64839 18.038 8.51362 18.038Z" fill="#5F0101"/>
</svg>
