<svg width="30" height="22" viewBox="0 0 30 22" fill="none" xmlns="http://www.w3.org/2000/svg">
<path d="M2.88688 21.5475C1.32897 21.5475 0.06604 20.2846 0.06604 18.7267V3.89407C0.06604 2.4093 1.26968 1.20566 2.75445 1.20566H3.64838C4.63944 1.20566 5.44285 2.00908 5.44285 3.00014V4.65487C5.44285 4.73205 5.50542 4.79462 5.58261 4.79462C5.64174 4.79462 5.69436 4.7573 5.71497 4.70188C6.14206 3.55384 6.83714 2.64447 7.80019 1.97378C8.78902 1.28512 9.9721 0.940796 11.3494 0.940796C12.7444 0.940796 13.9319 1.28954 14.9119 1.98702C15.8625 2.65503 16.5058 3.55565 16.8416 4.68887C16.8601 4.75117 16.9169 4.79462 16.9819 4.79462C17.043 4.79462 17.0973 4.75608 17.1188 4.69889C17.5403 3.57809 18.2791 2.67855 19.3352 2.00027C20.43 1.29395 21.7234 0.940796 23.2155 0.940796C25.1137 0.940796 26.6543 1.54558 27.8374 2.75514C29.0293 3.95587 29.6253 5.65985 29.6253 7.86708V18.7333C29.6253 20.2875 28.3653 21.5475 26.8111 21.5475C25.2568 21.5475 23.9968 20.2875 23.9968 18.7333V8.97953C23.9968 7.84943 23.6967 7.00185 23.0963 6.4368C22.4959 5.87175 21.7455 5.58922 20.8449 5.58922C19.8208 5.58922 19.0217 5.91589 18.4479 6.56923C17.874 7.21374 17.587 8.06573 17.587 9.12521V18.8127C17.587 20.3231 16.3626 21.5475 14.8523 21.5475C13.3419 21.5475 12.1175 20.3231 12.1175 18.8127V8.86034C12.1175 7.86267 11.8306 7.06807 11.2567 6.47653C10.6916 5.88499 9.94561 5.58922 9.01857 5.58922C8.39172 5.58922 7.82666 5.74814 7.32342 6.06599C6.829 6.375 6.43611 6.81203 6.14476 7.37708C5.8534 7.9333 5.70772 8.58664 5.70772 9.3371V18.7267C5.70772 20.2846 4.44479 21.5475 2.88688 21.5475Z" fill="#5F0101"/>
</svg>
