<svg width="11" height="13" viewBox="0 0 11 13" fill="none" xmlns="http://www.w3.org/2000/svg">
<path d="M5.82808 12.9227C4.82299 12.9227 3.93407 12.6676 3.16131 12.1575C2.3936 11.6474 1.79257 10.9428 1.35821 10.0438C0.923847 9.13971 0.706665 8.09674 0.706665 6.91488C0.706665 5.72291 0.923847 4.67489 1.35821 3.77081C1.79257 2.86169 2.3936 2.15459 3.16131 1.64952C3.93407 1.1394 4.82299 0.884338 5.82808 0.884338C6.83317 0.884338 7.71957 1.1394 8.48728 1.64952C9.25498 2.15964 9.85601 2.86674 10.2904 3.77081C10.7298 4.67489 10.9495 5.72291 10.9495 6.91488C10.9495 8.09674 10.7323 9.13971 10.2979 10.0438C9.86359 10.9428 9.26004 11.6474 8.48728 12.1575C7.71957 12.6676 6.83317 12.9227 5.82808 12.9227ZM5.82808 11.6878C6.63619 11.6878 7.32056 11.4706 7.88119 11.0363C8.44182 10.6019 8.86608 10.0236 9.15397 9.30134C9.44691 8.57908 9.59338 7.7836 9.59338 6.91488C9.59338 6.04616 9.44691 5.24815 9.15397 4.52084C8.86608 3.79354 8.44182 3.21019 7.88119 2.77078C7.32056 2.33136 6.63619 2.11166 5.82808 2.11166C5.02502 2.11166 4.34065 2.33136 3.77497 2.77078C3.21434 3.21019 2.78756 3.79354 2.49462 4.52084C2.20673 5.24815 2.06278 6.04616 2.06278 6.91488C2.06278 7.7836 2.20673 8.57908 2.49462 9.30134C2.78756 10.0236 3.21434 10.6019 3.77497 11.0363C4.3356 11.4706 5.01997 11.6878 5.82808 11.6878Z" fill="#78829D"/>
</svg>
