<svg width="20" height="28" viewBox="0 0 20 28" fill="none" xmlns="http://www.w3.org/2000/svg">
<path d="M5.89021 15.7874V24.7267C5.89021 26.2846 4.62728 27.5476 3.06937 27.5476C1.51147 27.5476 0.248535 26.2846 0.248535 24.7267V3.16649C0.248535 1.65247 1.47589 0.42511 2.98991 0.42511C4.50394 0.42511 5.73129 1.65247 5.73129 3.16649V10.6535C5.73129 10.7315 5.79451 10.7947 5.8725 10.7947C5.93102 10.7947 5.98338 10.7585 6.00505 10.7041C6.46647 9.54656 7.19631 8.63647 8.19456 7.97384C9.21872 7.28518 10.5033 6.94085 12.0484 6.94085C13.461 6.94085 14.6927 7.24987 15.7433 7.86789C16.8028 8.47709 17.6239 9.35556 18.2066 10.5033C18.7981 11.6423 19.0895 13.0063 19.0806 14.5955V24.7267C19.0806 26.2846 17.8177 27.5476 16.2598 27.5476C14.7019 27.5476 13.4389 26.2846 13.4389 24.7267V15.602C13.4478 14.3483 13.1299 13.3727 12.4854 12.6752C11.8497 11.9778 10.958 11.629 9.81026 11.629C9.04214 11.629 8.36231 11.7923 7.77077 12.119C7.18807 12.4457 6.72896 12.9224 6.39346 13.5493C6.06679 14.1673 5.89904 14.9134 5.89021 15.7874Z" fill="#5F0101"/>
</svg>
