<svg width="25" height="28" viewBox="0 0 25 28" fill="none" xmlns="http://www.w3.org/2000/svg">
<path d="M24.3987 6.75471C25.0552 8.36828 23.6576 9.92083 21.9156 9.92083H21.5025C20.2897 9.92083 19.3321 8.97901 18.739 7.92107C18.4124 7.32954 17.993 6.82629 17.4809 6.41133C16.9688 5.99637 16.3773 5.67853 15.7063 5.4578C15.0441 5.23708 14.3246 5.12672 13.5476 5.12672C12.1438 5.12672 10.921 5.47546 9.8792 6.17295C8.83739 6.8616 8.02955 7.8681 7.45567 9.19244C6.88179 10.5079 6.59485 12.106 6.59485 13.9865C6.59485 15.9201 6.88179 17.5446 7.45567 18.8601C8.03838 20.1756 8.85063 21.1689 9.89245 21.8399C10.9343 22.5109 12.1394 22.8464 13.5079 22.8464C14.276 22.8464 14.9867 22.7448 15.6401 22.5418C16.3023 22.3387 16.8894 22.0429 17.4014 21.6545C17.9135 21.2572 18.3373 20.776 18.6728 20.2109C19.297 19.1866 20.2616 18.2814 21.4612 18.2869L21.8664 18.2887C23.6358 18.2968 25.0211 19.8795 24.2718 21.4824C24.2055 21.6243 24.1358 21.7655 24.0629 21.9061C23.4713 23.0538 22.6723 24.0824 21.6658 24.9918C20.6681 25.8923 19.4762 26.6075 18.0901 27.1372C16.7128 27.6581 15.1545 27.9186 13.4152 27.9186C10.9961 27.9186 8.83298 27.3712 6.92593 26.2764C5.02771 25.1816 3.5268 23.5968 2.42318 21.522C1.3284 19.4472 0.781006 16.9354 0.781006 13.9865C0.781006 11.0289 1.33722 8.51261 2.44967 6.43782C3.56211 4.36302 5.07186 2.78264 6.9789 1.69668C8.88595 0.601898 11.0314 0.0545044 13.4152 0.0545044C14.9867 0.0545044 16.4435 0.275227 17.7855 0.716674C19.1363 1.15812 20.3326 1.80263 21.3745 2.65021C22.4163 3.48895 23.2639 4.51752 23.9172 5.73592C24.0949 6.0628 24.2554 6.4024 24.3987 6.75471Z" fill="#5F0101"/>
</svg>
