<svg width="7" height="13" viewBox="0 0 7 13" fill="none" xmlns="http://www.w3.org/2000/svg">
<path d="M0.979248 12.6802V1.04339H2.2899V2.83134H2.3884C2.62073 2.24546 3.02477 1.77322 3.60055 1.41462C4.18138 1.05097 4.83798 0.869141 5.57033 0.869141C5.68145 0.869141 5.8052 0.871665 5.94157 0.876716C6.07794 0.881767 6.19158 0.886818 6.28249 0.891869V2.26313C6.22188 2.25303 6.11583 2.23788 5.96431 2.21768C5.81279 2.19748 5.64863 2.18737 5.47186 2.18737C4.86577 2.18737 4.32533 2.31617 3.85056 2.57375C3.38085 2.82629 3.00962 3.17731 2.73689 3.62682C2.46415 4.07634 2.3278 4.58898 2.3278 5.16476V12.6802H0.979248Z" fill="#78829D"/>
</svg>
