<svg width="11" height="13" viewBox="0 0 11 13" fill="none" xmlns="http://www.w3.org/2000/svg">
<path d="M5.75832 12.9227C4.67241 12.9227 3.73298 12.6702 2.94002 12.1651C2.14706 11.655 1.5334 10.9504 1.09904 10.0514C0.669733 9.14729 0.455078 8.10684 0.455078 6.93003C0.455078 5.75827 0.669733 4.71782 1.09904 3.80869C1.5334 2.89452 2.13191 2.17984 2.89457 1.66467C3.66227 1.14445 4.54867 0.884338 5.55376 0.884338C6.1851 0.884338 6.79371 1.0005 7.37959 1.23284C7.96547 1.46012 8.49075 1.81114 8.95541 2.28591C9.42513 2.75562 9.79635 3.34908 10.0691 4.06628C10.3418 4.77843 10.4782 5.6219 10.4782 6.59668V7.26338H1.38693V6.07394H9.09936C9.09936 5.32643 8.94783 4.65469 8.64479 4.0587C8.3468 3.45767 7.93012 2.98291 7.39474 2.63441C6.86442 2.28591 6.25076 2.11166 5.55376 2.11166C4.81636 2.11166 4.16734 2.30864 3.60672 2.70259C3.04609 3.09655 2.60668 3.61677 2.28848 4.26326C1.97534 4.90975 1.81624 5.61685 1.81119 6.38455V7.0967C1.81119 8.02098 1.97029 8.82909 2.28848 9.52104C2.61173 10.2079 3.06882 10.7408 3.65975 11.1196C4.25068 11.4984 4.9502 11.6878 5.75832 11.6878C6.30884 11.6878 6.79118 11.6019 7.20534 11.4302C7.62455 11.2585 7.97557 11.0287 8.25841 10.7408C8.5463 10.4478 8.76348 10.1271 8.90996 9.77863L10.1903 10.1953C10.0135 10.6852 9.72312 11.1373 9.31906 11.5514C8.92006 11.9656 8.42004 12.2989 7.819 12.5515C7.22302 12.7989 6.53612 12.9227 5.75832 12.9227Z" fill="#78829D"/>
</svg>
