<svg width="21" height="22" viewBox="0 0 21 22" fill="none" xmlns="http://www.w3.org/2000/svg">
<path d="M10.3855 21.9448C8.3284 21.9448 6.54936 21.5078 5.04845 20.6337C3.55636 19.7508 2.40418 18.5236 1.59192 16.952C0.779661 15.3717 0.373535 13.5397 0.373535 11.456C0.373535 9.35476 0.779661 7.51834 1.59192 5.94679C2.40418 4.36642 3.55636 3.1392 5.04845 2.26513C6.54936 1.38224 8.3284 0.940796 10.3855 0.940796C12.4427 0.940796 14.2173 1.38224 15.7094 2.26513C17.2103 3.1392 18.3669 4.36642 19.1791 5.94679C19.9914 7.51834 20.3975 9.35476 20.3975 11.456C20.3975 13.5397 19.9914 15.3717 19.1791 16.952C18.3669 18.5236 17.2103 19.7508 15.7094 20.6337C14.2173 21.5078 12.4427 21.9448 10.3855 21.9448ZM10.412 17.5745C11.3479 17.5745 12.1292 17.3096 12.7561 16.7799C13.3829 16.2413 13.8553 15.5085 14.1731 14.5815C14.4998 13.6544 14.6631 12.5994 14.6631 11.4163C14.6631 10.2332 14.4998 9.17818 14.1731 8.25114C13.8553 7.32411 13.3829 6.59131 12.7561 6.05274C12.1292 5.51418 11.3479 5.24489 10.412 5.24489C9.46732 5.24489 8.67271 5.51418 8.0282 6.05274C7.39252 6.59131 6.91134 7.32411 6.58467 8.25114C6.26683 9.17818 6.10791 10.2332 6.10791 11.4163C6.10791 12.5994 6.26683 13.6544 6.58467 14.5815C6.91134 15.5085 7.39252 16.2413 8.0282 16.7799C8.67271 17.3096 9.46732 17.5745 10.412 17.5745Z" fill="#5F0101"/>
</svg>
