<svg width="30" height="28" viewBox="0 0 30 28" fill="none" xmlns="http://www.w3.org/2000/svg">
<path d="M0 3.42511C0 1.76826 1.34315 0.42511 3 0.42511H5.05939C6.27682 0.42511 7.37353 1.16085 7.83526 2.28733L14.481 18.501C14.5174 18.5899 14.604 18.648 14.7002 18.648C14.7963 18.648 14.8829 18.5899 14.9193 18.501L21.5651 2.28733C22.0268 1.16085 23.1235 0.42511 24.3409 0.42511H26.4003C28.0572 0.42511 29.4003 1.76826 29.4003 3.42511V24.7664C29.4003 26.3024 28.1552 27.5476 26.6192 27.5476C25.0832 27.5476 23.8381 26.3024 23.8381 24.7664V10.0284C23.8381 9.95424 23.778 9.89413 23.7038 9.89413C23.6489 9.89413 23.5996 9.92753 23.5792 9.97847L17.2977 25.6584C16.8726 26.7195 15.8446 27.4151 14.7015 27.4151C13.5571 27.4151 12.5281 26.7179 12.1039 25.655L5.82106 9.91237C5.80071 9.86136 5.75134 9.82791 5.69642 9.82791C5.6223 9.82791 5.56222 9.88799 5.56222 9.96211V24.7664C5.56222 26.3024 4.31708 27.5476 2.78111 27.5476C1.24515 27.5476 0 26.3024 0 24.7664V3.42511Z" fill="#5F0101"/>
</svg>
